<svg xmlns="http://www.w3.org/2000/svg" xmlns:xlink="http://www.w3.org/1999/xlink" width="24" height="24" preserveAspectRatio="xMidYMid meet" viewBox="0 0 24 24" style="-ms-transform: rotate(360deg); -webkit-transform: rotate(360deg); transform: rotate(360deg);"><path d="M12 22C6.477 22 2 17.523 2 12S6.477 2 12 2s10 4.477 10 10s-4.477 10-10 10zm0-2a8 8 0 1 0 0-16a8 8 0 0 0 0 16zm0-14a4 4 0 0 1 4 4v2a4 4 0 1 1-8 0v-2a4 4 0 0 1 4-4zm0 2a2 2 0 0 0-2 2v2a2 2 0 1 0 4 0v-2a2 2 0 0 0-2-2zM7.91 18.876a8.033 8.033 0 0 1-1.58-1.232a5.57 5.57 0 0 1 2.204-1.574a1 1 0 1 1 .733 1.86c-.532.21-.993.538-1.358.946zm8.144.022a3.652 3.652 0 0 0-1.41-.964a1 1 0 1 1 .712-1.868a5.65 5.65 0 0 1 2.284 1.607a8.032 8.032 0 0 1-1.586 1.225z" fill="#626262"/><rect x="0" y="0" width="24" height="24" fill="rgba(0, 0, 0, 0)" /></svg>